<svg xmlns="http://www.w3.org/2000/svg" xmlns:xlink="http://www.w3.org/1999/xlink" width="42" zoomAndPan="magnify" viewBox="0 0 31.5 31.499999" height="42" preserveAspectRatio="xMidYMid meet" version="1.0"><defs><clipPath id="b5a13050f6"><path d="M 0 0 L 31.007812 0 L 31.007812 31.007812 L 0 31.007812 Z M 0 0 " clip-rule="nonzero"/></clipPath></defs><g clip-path="url(#b5a13050f6)"><path fill="#fcd06a" d="M 15.503906 0 C 6.953125 0 0 6.953125 0 15.503906 C 0 24.054688 6.953125 31.007812 15.503906 31.007812 C 24.054688 31.007812 31.007812 24.054688 31.007812 15.503906 C 31.007812 6.953125 24.054688 0 15.503906 0 Z M 25.480469 25.480469 C 22.921875 28.039062 19.398438 29.621094 15.503906 29.621094 C 11.609375 29.621094 8.085938 28.039062 5.527344 25.480469 C 2.96875 22.921875 1.386719 19.394531 1.386719 15.503906 C 1.386719 11.609375 2.96875 8.085938 5.527344 5.527344 C 8.085938 2.96875 11.609375 1.386719 15.503906 1.386719 C 19.398438 1.386719 22.921875 2.96875 25.480469 5.527344 C 28.039062 8.085938 29.621094 11.609375 29.621094 15.503906 C 29.621094 19.394531 28.039062 22.921875 25.480469 25.480469 Z M 25.480469 25.480469 " fill-opacity="1" fill-rule="nonzero"/></g><path fill="#fcd06a" d="M 4.363281 10.527344 L 4.273438 10.527344 C 3.601562 12.050781 3.222656 13.730469 3.222656 15.503906 C 3.222656 20.335938 6.015625 24.515625 10.074219 26.519531 Z M 4.363281 10.527344 " fill-opacity="1" fill-rule="nonzero"/><path fill="#fcd06a" d="M 22.480469 11.046875 C 21.417969 9.566406 21.578125 6.539062 23.523438 6.207031 C 21.371094 4.347656 18.570312 3.222656 15.503906 3.222656 C 11.148438 3.222656 7.328125 5.488281 5.148438 8.90625 L 9.644531 8.90625 L 9.644531 10.527344 L 7.832031 10.527344 L 12.027344 22.269531 L 14.96875 14.40625 L 13.582031 10.527344 L 11.488281 10.527344 L 11.488281 8.90625 L 19.011719 8.90625 L 19.011719 10.527344 L 17.050781 10.527344 L 21.28125 22.375 L 23.425781 16.644531 C 23.804688 15.101562 23.582031 12.59375 22.480469 11.046875 Z M 22.480469 11.046875 " fill-opacity="1" fill-rule="nonzero"/><path fill="#fcd06a" d="M 26.921875 10.980469 C 26.914062 11.023438 26.910156 11.074219 26.902344 11.117188 C 26.605469 13.113281 24.761719 17.484375 24.761719 17.484375 L 22.085938 24.632812 L 21.492188 26.226562 C 25.246094 24.125 27.785156 20.113281 27.785156 15.503906 C 27.785156 13.90625 27.476562 12.378906 26.921875 10.980469 Z M 26.921875 10.980469 " fill-opacity="1" fill-rule="nonzero"/><path fill="#fcd06a" d="M 12.832031 24.523438 L 11.820312 27.222656 C 12.984375 27.589844 14.222656 27.785156 15.503906 27.785156 C 16.90625 27.785156 18.253906 27.546875 19.507812 27.113281 L 15.773438 16.65625 Z M 12.832031 24.523438 " fill-opacity="1" fill-rule="nonzero"/></svg>