<svg xmlns="http://www.w3.org/2000/svg" xmlns:xlink="http://www.w3.org/1999/xlink" width="42" zoomAndPan="magnify" viewBox="0 0 31.5 31.499999" height="42" preserveAspectRatio="xMidYMid meet" version="1.0"><path fill="#fcd06a" d="M 25.675781 6.089844 C 25.652344 5.933594 25.515625 5.847656 25.40625 5.839844 C 25.292969 5.828125 22.921875 5.652344 22.921875 5.652344 C 22.921875 5.652344 21.273438 4.019531 21.09375 3.835938 C 20.914062 3.65625 20.558594 3.710938 20.421875 3.753906 C 20.402344 3.757812 20.0625 3.863281 19.5 4.035156 C 18.953125 2.453125 17.980469 1 16.273438 1 C 16.226562 1 16.175781 1 16.128906 1.003906 C 15.644531 0.363281 15.042969 0.0820312 14.523438 0.0820312 C 10.542969 0.0820312 8.640625 5.054688 8.046875 7.582031 C 6.5 8.0625 5.402344 8.402344 5.261719 8.445312 C 4.398438 8.71875 4.371094 8.746094 4.257812 9.558594 C 4.171875 10.171875 1.914062 27.632812 1.914062 27.632812 L 19.507812 30.929688 L 29.042969 28.867188 C 29.042969 28.867188 25.695312 6.246094 25.675781 6.089844 Z M 18.527344 4.335938 C 18.085938 4.472656 17.585938 4.628906 17.039062 4.796875 C 17.042969 4.695312 17.042969 4.589844 17.042969 4.476562 C 17.042969 3.492188 16.90625 2.703125 16.6875 2.074219 C 17.566406 2.183594 18.152344 3.183594 18.527344 4.335938 Z M 15.59375 2.269531 C 15.839844 2.882812 16 3.761719 16 4.949219 C 16 5.007812 15.996094 5.066406 15.996094 5.121094 C 15.027344 5.421875 13.976562 5.746094 12.921875 6.074219 C 13.515625 3.789062 14.625 2.683594 15.59375 2.269531 Z M 14.414062 1.148438 C 14.585938 1.148438 14.757812 1.207031 14.921875 1.320312 C 13.648438 1.921875 12.28125 3.433594 11.703125 6.449219 C 10.859375 6.710938 10.035156 6.96875 9.273438 7.203125 C 9.949219 4.902344 11.554688 1.148438 14.414062 1.148438 Z M 14.414062 1.148438 " fill-opacity="1" fill-rule="nonzero"/><path fill="#fcd06a" d="M 25.40625 5.839844 C 25.292969 5.828125 22.921875 5.652344 22.921875 5.652344 C 22.921875 5.652344 21.273438 4.019531 21.09375 3.835938 C 21.027344 3.769531 20.933594 3.734375 20.839844 3.722656 L 19.511719 30.929688 L 29.042969 28.867188 C 29.042969 28.867188 25.695312 6.246094 25.675781 6.089844 C 25.652344 5.933594 25.515625 5.847656 25.40625 5.839844 " fill-opacity="1" fill-rule="nonzero"/><path fill="#000000" d="M 16.273438 11.105469 L 15.097656 14.601562 C 15.097656 14.601562 14.066406 14.054688 12.804688 14.054688 C 10.953125 14.054688 10.863281 15.214844 10.863281 15.507812 C 10.863281 17.105469 15.023438 17.714844 15.023438 21.457031 C 15.023438 24.398438 13.15625 26.292969 10.640625 26.292969 C 7.621094 26.292969 6.078125 24.414062 6.078125 24.414062 L 6.886719 21.742188 C 6.886719 21.742188 8.472656 23.105469 9.8125 23.105469 C 10.6875 23.105469 11.042969 22.417969 11.042969 21.914062 C 11.042969 19.828125 7.628906 19.738281 7.628906 16.3125 C 7.628906 13.433594 9.695312 10.644531 13.871094 10.644531 C 15.476562 10.644531 16.273438 11.105469 16.273438 11.105469 " fill-opacity="1" fill-rule="nonzero"/></svg>